<?xml version="1.0" encoding="iso-8859-1"?>
<!-- Generator: Adobe Illustrator 25.2.1, SVG Export Plug-In . SVG Version: 6.00 Build 0)  -->
<svg version="1.1" id="Layer_1" xmlns="http://www.w3.org/2000/svg" xmlns:xlink="http://www.w3.org/1999/xlink" x="0px" y="0px"
	 width="114.64px" height="142.976px" viewBox="0 0 114.64 142.976" enable-background="new 0 0 114.64 142.976"
	 xml:space="preserve">
<g>
	<path fill="none" d="M48.962,45.417c5.792,0.496,10.772,0.772,16.552,0.408c8.081-0.508,17.029-2.957,24.346-7.079
		c-0.987-0.064-3.079,0.264-4.067,0.258c-3.972-0.024-8,0.398-11.902-0.126c-4.728-0.636-9.667-1.671-12.651-5.927
		c-1.355-1.933-2.66-2.088-4.291-1.223c-3.529,1.874-7.116,3.723-10.337,6.056c-1.448,1.048-3.536,2.424-3.073,4.9
		C43.716,44.025,46.962,45.196,48.962,45.417z"/>
	<polygon fill="none" points="77.199,95.394 69.022,128.485 88.333,110.42 	"/>
	<g>
		<path fill="#FF9E18" d="M103.93,107.322c-6.732-9.673-13.36-19.418-19.988-29.161L76.825,67.71
			c-1.587-2.327-3.369-2.725-6.012-1.301c-8.48,4.586-24.318,3.731-30.993,8.171c-7.389,4.914-6.21,11.695-6.21,11.695
			c-2.544,1.36-1.328,0.48-3.82,1.932L14.618,65.571l2.859-1.284l-4.602-8.167L0,62.896l29.062,44.212l33.72-20.313l-7.306,37.18
			L52.5,142.341c3.272,0.403,6.597,0.635,9.978,0.635c5.973,0,11.787-0.667,17.39-1.896c0.765-1.347,1.7-2.649,2.894-3.879
			c2.838-2.928,5.462-6.186,7.656-8.985c4.78-6.109,9.12-11.83,13.27-17.485C104.73,109.314,104.782,108.548,103.93,107.322z
			 M69.022,128.485l8.177-33.091l11.134,15.026L69.022,128.485z"/>
	</g>
	<g>
		<path fill="#FF9E18" d="M111.415,21.031C107.626,8.121,100.353,0.571,83.727,0c-3.919,0.522-7.841,1.813-11.276,3.636
			C64.926,7.631,60.246,13.959,59.39,22.687c-0.274,2.785-1.125,4.435-4.226,5.602c-4.101,1.544-7.944,4.139-11.427,6.88
			c-6.095,4.799-4.936,11.176,2.489,13.367c3.998,1.179,8.359,1.679,12.53,1.563c4.069-0.113,7.395,0.184,9.5,4.143
			c0.405,0.762,1.296,1.303,2.038,1.843c8.795,6.396,18.241,6.795,27.682,2.067c9.87-4.944,16.463-12.832,16.661-24.303
			C114.711,29.595,112.661,25.273,111.415,21.031z M65.514,45.826c-5.78,0.363-10.76,0.087-16.552-0.408
			c-2-0.222-5.246-1.392-5.422-2.732c-0.464-2.476,1.625-3.852,3.073-4.9c3.221-2.333,6.808-4.182,10.337-6.056
			c1.63-0.865,2.936-0.71,4.291,1.223c2.983,4.255,7.923,5.291,12.651,5.927c3.902,0.524,7.93,0.102,11.902,0.126
			c0.987,0.005,3.08-0.322,4.067-0.258C82.543,42.869,73.595,45.317,65.514,45.826z"/>
	</g>
</g>
</svg>
