<svg id="ab182015-68b4-4ef9-858f-3611008188a5" data-name="Layer 1" xmlns="http://www.w3.org/2000/svg" viewBox="0 0 16.99 17"><title>ksp</title><path d="M8.5,1.5c2.25,0,2.53,0,3.43.05a4.74,4.74,0,0,1,1.58.33,2.62,2.62,0,0,1,1,.63,2.63,2.63,0,0,1,.63,1,4.82,4.82,0,0,1,.3,1.59c0,.89,0,1.16,0,3.43s0,2.53,0,3.43a4.76,4.76,0,0,1-.3,1.58,2.83,2.83,0,0,1-1.61,1.61,4.76,4.76,0,0,1-1.58.3c-.9,0-1.17,0-3.43,0s-2.54,0-3.43,0a4.82,4.82,0,0,1-1.59-.3,2.63,2.63,0,0,1-1-.63,2.62,2.62,0,0,1-.63-1,4.71,4.71,0,0,1-.3-1.58c0-.9-.08-1.17-.08-3.43s0-2.54.05-3.43a4.8,4.8,0,0,1,.33-1.59,2.75,2.75,0,0,1,1.6-1.6,4.82,4.82,0,0,1,1.59-.3C6,1.54,6.23,1.5,8.5,1.5M8.5,0C6.19,0,5.9,0,5,.05A6.32,6.32,0,0,0,2.93.44a4.27,4.27,0,0,0-1.5,1,4.07,4.07,0,0,0-1,1.5A6.33,6.33,0,0,0,.05,5C0,5.9,0,6.19,0,8.5S0,11.09.05,12a6.32,6.32,0,0,0,.39,2.06,4.42,4.42,0,0,0,2.49,2.49A6.32,6.32,0,0,0,5,17c.91,0,1.2.05,3.51.05S11.09,17,12,17a6.38,6.38,0,0,0,2.07-.39,4.43,4.43,0,0,0,2.48-2.49A6.07,6.07,0,0,0,16.94,12c0-.91,0-1.19,0-3.51s0-2.59,0-3.5a6.07,6.07,0,0,0-.39-2.06A4.39,4.39,0,0,0,14.07.44,6.32,6.32,0,0,0,12,.05C11.09,0,10.81,0,8.5,0Z" fill="#3d3d3e"/><path d="M8.5,4.14A4.36,4.36,0,1,0,12.86,8.5h0A4.36,4.36,0,0,0,8.5,4.14Zm0,7.19A2.83,2.83,0,1,1,11.33,8.5,2.83,2.83,0,0,1,8.5,11.33Z" fill="#272D9A"/><circle cx="13.03" cy="3.96" r="1.02" fill="#272D9A"/></svg>
