<?xml version="1.0" encoding="iso-8859-1"?>
<!-- Generator: Adobe Illustrator 25.2.1, SVG Export Plug-In . SVG Version: 6.00 Build 0)  -->
<svg version="1.1" id="Layer_1" xmlns="http://www.w3.org/2000/svg" xmlns:xlink="http://www.w3.org/1999/xlink" x="0px" y="0px"
	 width="119.849px" height="119.849px" viewBox="0 0 119.849 119.849" enable-background="new 0 0 119.849 119.849"
	 xml:space="preserve">
<g id="_x30_TXKR4_1_">
	<g>
		<path fill="#FF9E18" d="M5.351,61.283C5.448,47.346,9.172,36.059,16.982,26.3C28.191,12.296,42.863,5.222,60.841,5.353
			c12.167,0.088,23.121,3.974,32.632,11.538c14.015,11.147,21.049,25.855,21.024,43.703c-0.017,11.904-3.781,22.783-11.104,32.22
			c-10.823,13.947-25.219,21.05-42.836,21.684c-15.074-0.183-28.175-5.211-38.957-15.9C10.835,87.927,5.602,74.933,5.351,61.283z
			 M107.668,60.392c0.206-27-21.499-47.974-46.949-48.232c-15.933-0.161-28.925,6.272-38.712,18.792
			c-6.759,8.646-9.966,18.649-9.81,29.646c0.365,25.633,21.265,46.841,47.41,47C86.342,107.761,107.425,86.118,107.668,60.392z"/>
		<path fill="#FF9E18" d="M60.385,93.647c-2.12-0.146-3.73-0.161-5.308-0.392c-1.686-0.246-3.362-0.623-5.005-1.08
			c-1.358-0.377-2.697-0.875-3.979-1.462c-1.531-0.701-3.033-1.488-4.473-2.361c-1.35-0.818-2.666-1.72-3.881-2.726
			c-1.201-0.994-2.295-2.128-3.368-3.265c-0.978-1.035-1.918-2.116-2.776-3.251c-0.758-1.002-1.421-2.083-2.049-3.174
			c-0.65-1.128-0.25-2.963,0.686-3.914c0.915-0.929,2.009-1.166,3.217-0.932c0.901,0.174,1.571,0.749,2.087,1.505
			c0.805,1.178,1.585,2.375,2.434,3.52c1.007,1.359,2.173,2.574,3.47,3.672c1.118,0.948,2.226,1.892,3.535,2.576
			c1.212,0.634,2.387,1.34,3.618,1.932c0.901,0.432,1.859,0.749,2.804,1.083c1.408,0.497,2.872,0.757,4.338,1.035
			c2.611,0.495,5.223,0.414,7.826,0.13c1.424-0.155,2.853-0.479,4.215-0.925c1.753-0.574,3.499-1.232,5.141-2.066
			c1.742-0.884,3.432-1.912,4.881-3.26c1.024-0.953,2.051-1.908,3.004-2.931c0.83-0.89,1.582-1.857,2.32-2.827
			c0.423-0.556,0.759-1.18,1.118-1.783c0.896-1.508,2.375-2.145,3.998-1.587c2.178,0.749,2.878,2.622,2.014,4.829
			c-0.387,0.988-1.154,1.83-1.772,2.722c-0.538,0.777-1.065,1.569-1.678,2.286c-0.807,0.944-1.673,1.839-2.55,2.719
			c-0.653,0.656-1.34,1.284-2.058,1.868c-0.744,0.605-1.53,1.161-2.323,1.702c-0.923,0.631-1.858,1.249-2.817,1.825
			c-0.69,0.414-1.404,0.803-2.147,1.109c-1.662,0.684-3.325,1.383-5.033,1.934c-1.248,0.403-2.559,0.652-3.861,0.839
			C63.979,93.292,61.927,93.474,60.385,93.647z"/>
		<path fill="#FF9E18" d="M36.065,46.291c-0.129-1.797,0.501-3.363,1.6-4.717c1.283-1.581,3.089-2.335,5.052-2.388
			c1.567-0.042,3.146,0.349,4.404,1.441c1.503,1.304,2.454,2.907,2.591,4.942c0.264,3.911-2.868,7.052-6.389,7.253
			C39.327,53.05,36.162,49.937,36.065,46.291z"/>
		<path fill="#FF9E18" d="M83.805,46.139c0.011,3.614-3.119,6.722-6.899,6.699c-3.703-0.022-6.978-3.266-6.76-7.142
			c0.205-3.651,3.022-6.569,6.923-6.51C80.77,39.243,83.853,42.14,83.805,46.139z"/>
	</g>
</g>
</svg>
