<?xml version="1.0" encoding="iso-8859-1"?>
<!-- Generator: Adobe Illustrator 25.2.1, SVG Export Plug-In . SVG Version: 6.00 Build 0)  -->
<svg version="1.1" id="Layer_1" xmlns="http://www.w3.org/2000/svg" xmlns:xlink="http://www.w3.org/1999/xlink" x="0px" y="0px"
	 width="90.709px" height="135.833px" viewBox="0 0 90.709 135.833" enable-background="new 0 0 90.709 135.833"
	 xml:space="preserve">
<g>
	<g>
		<path fill="#64BE6B" d="M83.891,45.124h-14.44V26.155C69.451,11.488,61.65,0,51.69,0H39.018c-9.958,0-17.759,11.488-17.759,26.155
			v18.969H6.818C3.068,45.124,0,48.192,0,51.942v77.073c0,3.749,3.068,6.818,6.818,6.818h77.073c3.75,0,6.818-3.069,6.818-6.818
			V51.942C90.709,48.192,87.641,45.124,83.891,45.124z M32.01,26.155c0-9.26,4.219-15.404,7.008-15.404H51.69
			c2.791,0,7.009,6.144,7.009,15.404v18.969H32.01V26.155z"/>
	</g>
</g>
</svg>
