<?xml version="1.0" encoding="iso-8859-1"?>
<!-- Generator: Adobe Illustrator 25.2.1, SVG Export Plug-In . SVG Version: 6.00 Build 0)  -->
<svg version="1.1" id="Layer_1" xmlns="http://www.w3.org/2000/svg" xmlns:xlink="http://www.w3.org/1999/xlink" x="0px" y="0px"
	 width="144.688px" height="142.069px" viewBox="0 0 144.688 142.069" enable-background="new 0 0 144.688 142.069"
	 xml:space="preserve">
<g>
	<g>
		<path fill="#69C480" d="M139.165,70.162c0,11.309,0.64,22.663-0.144,33.917c-1.314,18.862-15.033,32.925-33.845,33.709
			c-21.631,0.902-43.355,1.018-64.984,0.132c-20.16-0.827-33.828-14.85-34.561-35.062C4.866,81.765,4.893,60.6,5.68,39.507
			C6.428,19.465,19.82,5.496,39.837,4.46c21.345-1.104,42.817-1.229,64.169-0.293c20.946,0.919,33.828,14.423,35.263,35.336
			c0.699,10.174,0.121,20.436,0.121,30.658C139.315,70.162,139.24,70.162,139.165,70.162z M73.173,15.304
			c-0.005,0.17-0.011,0.341-0.016,0.511c-5.59,0-11.182-0.113-16.768,0.032c-5.581,0.145-11.192,0.243-16.727,0.898
			c-12.413,1.468-21.138,9.559-21.549,21.856c-0.714,21.365-0.872,42.787-0.143,64.147c0.469,13.74,8.906,22.287,22.663,22.816
			c21.081,0.812,42.238,0.721,63.323-0.053c13.608-0.499,22.293-9.034,22.795-22.734c0.792-21.623,0.611-43.314-0.108-64.945
			c-0.384-11.554-8.873-19.84-20.416-21.003C95.27,15.726,84.196,15.767,73.173,15.304z"/>
	</g>
	<g>
		<path fill="#69C480" d="M72.694,36.309c19.078,0.14,34.54,15.709,34.497,34.736c-0.044,19.389-15.849,35.008-35.279,34.863
			c-18.797-0.14-34.343-15.801-34.27-34.523C37.718,51.843,53.382,36.168,72.694,36.309z M72.895,48.653
			c-12.522-0.207-22.805,9.765-22.937,22.243c-0.131,12.419,9.619,22.475,22.006,22.698c12.331,0.222,22.645-9.617,22.911-21.855
			C95.151,59.042,85.457,48.86,72.895,48.653z"/>
	</g>
	<g>
		<path fill="#69C480" d="M100.463,34.9c-0.027-4.394,3.569-8.113,7.938-8.208c4.284-0.093,8.13,3.641,8.224,7.984
			c0.096,4.424-3.454,8.207-7.81,8.322C104.025,43.126,100.493,39.7,100.463,34.9z"/>
	</g>
</g>
</svg>
