<?xml version="1.0" encoding="iso-8859-1"?>
<!-- Generator: Adobe Illustrator 25.2.1, SVG Export Plug-In . SVG Version: 6.00 Build 0)  -->
<svg version="1.1" id="Layer_1" xmlns="http://www.w3.org/2000/svg" xmlns:xlink="http://www.w3.org/1999/xlink" x="0px" y="0px"
	 width="787.874px" height="207.662px" viewBox="0 0 787.874 207.662" enable-background="new 0 0 787.874 207.662"
	 xml:space="preserve">
<g>
	<g>
		<g>
			<polygon fill="#005677" points="16.959,78.563 44.154,94.52 16.959,110.77 16.959,119.27 62.326,119.27 62.326,109.187 
				37.526,109.187 57.429,97.109 57.429,92.152 37.201,80.067 62.326,80.013 62.326,69.991 16.959,70.058 			"/>
			<polygon fill="#005677" points="46.3,36.427 16.959,18.727 16.959,29.478 36.658,41.404 16.959,53.212 16.959,64.637 
				46.419,46.876 62.326,46.876 62.326,36.427 			"/>
		</g>
		<g>
			<path fill="#FF9E18" d="M100.454,38.555v25.569h44.895v17.968h-44.895v35.243H78.005V20.587h73.3v17.968H100.454z"/>
		</g>
		<g>
			<path fill="#FF9E18" d="M248.246,113.74c-2.127,1.569-4.736,2.743-7.831,3.526c-3.095,0.781-6.352,1.175-9.771,1.175
				c-8.869,0-15.727-2.258-20.574-6.772c-4.852-4.514-7.279-11.147-7.279-19.903V61.221h-11.498V44.635h11.498V20.587h21.618v24.048
				h18.569v16.586H224.41v30.267c0,3.135,0.81,5.552,2.426,7.257c1.616,1.705,3.9,2.556,6.858,2.556
				c3.419,0,6.326-0.919,8.732-2.764L248.246,113.74z"/>
		</g>
		<g>
			<g>
				<path fill="#64BE6B" d="M284.406,38.555v25.569h44.897v17.968h-44.897v35.243h-22.444V20.587h73.297v17.968H284.406z"/>
			</g>
			<g>
				<path fill="#64BE6B" d="M369.282,112.498c-8.084-4.33-14.41-10.296-18.984-17.897c-4.574-7.603-6.858-16.149-6.858-25.639
					c0-9.488,2.284-18.036,6.858-25.637c4.574-7.603,10.9-13.567,18.984-17.9c8.084-4.33,17.161-6.494,27.23-6.494
					c10.064,0,19.121,2.165,27.159,6.494c8.033,4.332,14.36,10.296,18.984,17.9c4.614,7.601,6.924,16.149,6.924,25.637
					c0,9.49-2.31,18.036-6.924,25.639c-4.624,7.601-10.951,13.567-18.984,17.897c-8.038,4.332-17.095,6.497-27.159,6.497
					C386.443,118.995,377.366,116.83,369.282,112.498z M412.031,95.982c4.614-2.627,8.241-6.29,10.875-10.988
					c2.634-4.698,3.951-10.041,3.951-16.033c0-5.989-1.317-11.332-3.951-16.033c-2.634-4.698-6.26-8.361-10.875-10.988
					c-4.624-2.625-9.796-3.938-15.52-3.938c-5.729,0-10.905,1.314-15.52,3.938c-4.624,2.627-8.246,6.29-10.88,10.988
					c-2.634,4.701-3.951,10.044-3.951,16.033c0,5.992,1.317,11.334,3.951,16.033c2.634,4.698,6.255,8.361,10.88,10.988
					c4.614,2.625,9.791,3.938,15.52,3.938C402.236,99.92,407.407,98.607,412.031,95.982z"/>
			</g>
			<g>
				<path fill="#64BE6B" d="M486.23,112.498c-8.084-4.33-14.41-10.296-18.984-17.897c-4.574-7.603-6.858-16.149-6.858-25.639
					c0-9.488,2.284-18.036,6.858-25.637c4.574-7.603,10.9-13.567,18.984-17.9c8.084-4.33,17.161-6.494,27.23-6.494
					c10.064,0,19.121,2.165,27.159,6.494c8.033,4.332,14.36,10.296,18.984,17.9c4.614,7.601,6.924,16.149,6.924,25.637
					c0,9.49-2.31,18.036-6.924,25.639c-4.624,7.601-10.951,13.567-18.984,17.897c-8.038,4.332-17.095,6.497-27.159,6.497
					C503.391,118.995,494.314,116.83,486.23,112.498z M528.98,95.982c4.614-2.627,8.241-6.29,10.875-10.988
					s3.951-10.041,3.951-16.033c0-5.989-1.317-11.332-3.951-16.033c-2.634-4.698-6.26-8.361-10.875-10.988
					c-4.624-2.625-9.796-3.938-15.52-3.938c-5.729,0-10.905,1.314-15.519,3.938c-4.624,2.627-8.246,6.29-10.88,10.988
					c-2.634,4.701-3.951,10.044-3.951,16.033c0,5.992,1.317,11.334,3.951,16.033c2.634,4.698,6.255,8.361,10.88,10.988
					c4.614,2.625,9.791,3.938,15.519,3.938C519.184,99.92,524.355,98.607,528.98,95.982z"/>
			</g>
			<g>
				<path fill="#64BE6B" d="M583.435,20.587h44.061c10.53,0,19.835,2.006,27.924,6.012c8.079,4.009,14.36,9.655,18.842,16.932
					c4.483,7.28,6.721,15.755,6.721,25.43s-2.239,18.152-6.721,25.43c-4.483,7.28-10.763,12.923-18.842,16.932
					c-8.089,4.009-17.394,6.012-27.924,6.012h-44.061V20.587z M626.387,98.953c9.7,0,17.439-2.695,23.213-8.086
					c5.769-5.391,8.656-12.691,8.656-21.906c0-9.213-2.887-16.515-8.656-21.906c-5.774-5.391-13.514-8.086-23.213-8.086h-20.509
					v59.984H626.387z"/>
			</g>
			<g>
				<path fill="#64BE6B" d="M707.52,115.885c-7.162-2.074-12.911-4.769-17.252-8.086l7.623-16.861
					c4.153,3.039,9.097,5.482,14.826,7.323c5.724,1.847,11.452,2.766,17.181,2.766c6.377,0,11.088-0.945,14.137-2.834
					c3.044-1.887,4.569-4.398,4.569-7.533c0-2.301-0.902-4.216-2.7-5.734c-1.803-1.521-4.113-2.741-6.929-3.663
					c-2.821-0.922-6.63-1.935-11.432-3.041c-7.39-1.751-13.443-3.501-18.153-5.252c-4.711-1.751-8.753-4.562-12.121-8.432
					c-3.373-3.87-5.06-9.028-5.06-15.48c0-5.618,1.525-10.71,4.574-15.273c3.049-4.56,7.643-8.174,13.787-10.849
					c6.139-2.67,13.645-4.006,22.514-4.006c6.19,0,12.242,0.738,18.153,2.21c5.911,1.475,11.088,3.595,15.52,6.358l-6.929,17
					c-8.96-5.067-17.92-7.603-26.881-7.603c-6.286,0-10.925,1.015-13.924,3.041c-3.004,2.028-4.508,4.698-4.508,8.018
					c0,3.317,1.732,5.782,5.197,7.394s8.753,3.203,15.869,4.767c7.39,1.753,13.438,3.504,18.153,5.254
					c4.711,1.751,8.747,4.514,12.121,8.291c3.373,3.779,5.06,8.894,5.06,15.343c0,5.527-1.55,10.572-4.645,15.134
					c-3.095,4.56-7.734,8.177-13.924,10.849c-6.19,2.67-13.716,4.009-22.585,4.009C722.092,118.995,714.677,117.956,707.52,115.885z
					"/>
			</g>
		</g>
		<g>
			<g>
				<path fill="#FF9E18" d="M187.59,63.237c-2.684-3.847-5.327-7.723-7.97-11.597l-2.837-4.157
					c-0.633-0.925-1.343-1.083-2.397-0.517c-3.381,1.824-6.772,3.633-10.161,5.441l-5.552,2.964
					c-1.014,0.541-2.031,1.082-3.024,1.659c-0.306,0.178-0.351,0.285-0.351,0.286c0,0-0.009,0.076,0.085,0.262
					c0.603,1.185,1.188,2.381,1.774,3.576c0.958,1.957,1.95,3.979,3,5.917c1.173,2.159,2.412,4.284,3.65,6.408
					c0.852,1.463,1.704,2.925,2.535,4.4c0.331,0.588,0.55,1.557,0.253,2.303c-0.387,0.983-0.918,1.972-1.574,2.938
					c-2.401,3.531-4.815,7.053-7.231,10.573l-3.956,5.771c-0.393,0.574-0.433,0.757-0.436,0.799l0.002-0.001
					c0.017,0,0.134,0.155,0.676,0.524c0.95,0.646,1.893,1.302,2.836,1.958c1.919,1.336,3.903,2.717,5.902,3.98
					c1.953,1.233,1.861,2.752,1.513,4.075c-0.376,1.434-0.642,2.891-0.924,4.435c-0.051,0.28-0.102,0.561-0.153,0.842l0.924,0.002
					c1.477,0.005,2.892,0.01,4.305-0.01c0.414-0.005,0.75,0.002,1.033,0.008c0.196,0.005,0.41,0.008,0.555,0.005
					c0.064-0.218,0.14-0.611,0.215-0.995l0.083-0.424c0.066-0.337,0.244-0.58,0.374-0.758l0.533-0.864l1.343,0.709l2.96,2.032
					l3.978-4.763l-0.986-0.741c-1.895-1.423-3.731-2.802-5.543-4.216c-0.597-0.466-0.827-1.414-0.705-2.061
					c1.332-7.205,2.684-14.411,4.075-21.608l0.183-1.014c0.382-2.167,0.775-4.407,2.573-6.256c1.132-1.164,2.178-2.46,3.053-3.573
					c1.906-2.43,3.636-4.705,5.291-6.954C187.909,64.03,187.93,63.725,187.59,63.237z M166.421,100.847l-4.717-3.516l2.654-3.626
					c0.657-0.887,1.402-1.893,2.448-2.792l2.189-1.881L166.421,100.847z M167.983,69.471l-5.278-9.303l8.478-5.094L167.983,69.471z
					 M173.671,71.654l3.261-13.16l4.439,5.976L173.671,71.654z"/>
			</g>
			<g>
				<path fill="#FF9E18" d="M179.534,20.554c6.629,0.227,9.529,3.23,11.04,8.364c0.497,1.687,1.314,3.406,1.285,5.098
					c-0.079,4.562-2.708,7.699-6.643,9.665c-3.764,1.881-7.531,1.722-11.038-0.822c-0.296-0.215-0.651-0.43-0.813-0.733
					c-0.839-1.575-2.166-1.693-3.788-1.648c-1.663,0.046-3.402-0.153-4.996-0.622c-2.961-0.871-3.423-3.408-0.992-5.316
					c1.389-1.09,2.921-2.122,4.556-2.736c1.237-0.464,1.576-1.12,1.685-2.228c0.342-3.471,2.207-5.988,5.208-7.577
					C176.408,21.276,177.972,20.762,179.534,20.554z M181.979,35.964c-0.394-0.025-1.228,0.105-1.622,0.103
					c-1.584-0.01-3.19,0.159-4.746-0.05c-1.885-0.253-3.855-0.665-5.044-2.357c-0.54-0.769-1.061-0.83-1.711-0.486
					c-1.407,0.745-2.838,1.481-4.122,2.408c-0.577,0.417-1.41,0.964-1.225,1.949c0.07,0.533,1.364,0.998,2.162,1.086
					c2.309,0.197,4.295,0.307,6.6,0.162C175.494,38.578,179.062,37.604,181.979,35.964z"/>
			</g>
		</g>
	</g>
	<g>
		<path fill="#005677" d="M267.227,157.483c3.942,0,7.708,1.529,10.685,4.062c0.351,0.349,0.394,0.874,0.044,1.223l-2.715,2.839
			c-0.351,0.351-0.745,0.351-1.139,0c-1.883-1.659-4.204-2.533-6.613-2.533c-5.474,0-9.81,4.674-9.81,10.134
			c0,5.417,4.336,10.004,9.854,10.004c2.452,0,4.336-0.743,5.211-1.092v-3.713h-3.503c-0.482,0-0.832-0.349-0.832-0.786v-3.45
			c0-0.482,0.351-0.831,0.832-0.831h8.408c0.438,0,0.788,0.394,0.788,0.831v11.182c0,0.349-0.175,0.567-0.35,0.698
			c0,0-4.511,2.839-10.861,2.839c-8.715,0-15.722-6.901-15.722-15.637C251.505,164.516,258.512,157.483,267.227,157.483z"/>
		<path fill="#005677" d="M293.633,158.75c0-0.437,0.394-0.829,0.832-0.829h4.073c0.438,0,0.832,0.392,0.832,0.829v28.917
			c0,0.437-0.394,0.831-0.832,0.831h-4.073c-0.438,0-0.832-0.394-0.832-0.831V158.75z"/>
		<path fill="#005677" d="M312.112,159.056c-0.262-0.567,0.087-1.135,0.745-1.135h4.467c0.394,0,0.657,0.263,0.744,0.48
			l8.408,18.783h0.307l8.408-18.783c0.088-0.218,0.351-0.48,0.745-0.48h4.467c0.657,0,1.007,0.568,0.745,1.135l-13.576,29.397
			c-0.132,0.263-0.351,0.482-0.745,0.482h-0.438c-0.394,0-0.612-0.219-0.744-0.482L312.112,159.056z"/>
		<path fill="#005677" d="M353.89,158.75c0-0.437,0.351-0.829,0.832-0.829h17.824c0.482,0,0.832,0.392,0.832,0.829v3.582
			c0,0.437-0.35,0.831-0.832,0.831h-12.963v7.164H370.4c0.438,0,0.832,0.392,0.832,0.829v3.625c0,0.482-0.394,0.831-0.832,0.831
			h-10.817v7.644h12.963c0.482,0,0.832,0.394,0.832,0.829v3.582c0,0.437-0.35,0.831-0.832,0.831h-17.824
			c-0.482,0-0.832-0.394-0.832-0.831V158.75z"/>
		<path fill="#005677" d="M402.848,187.361l13.62-29.397c0.132-0.263,0.35-0.48,0.745-0.48h0.437c0.438,0,0.613,0.218,0.745,0.48
			l13.488,29.397c0.262,0.568-0.087,1.137-0.745,1.137h-3.81c-0.657,0-0.963-0.263-1.27-0.874l-2.145-4.717h-13.095l-2.145,4.717
			c-0.175,0.437-0.57,0.874-1.27,0.874h-3.81C402.935,188.497,402.585,187.929,402.848,187.361z M421.767,178.058l-4.379-9.61
			h-0.132l-4.292,9.61H421.767z"/>
		<path fill="#005677" d="M463.061,158.75c0-0.437,0.351-0.829,0.832-0.829h17.824c0.482,0,0.832,0.392,0.832,0.829v3.582
			c0,0.437-0.35,0.831-0.832,0.831h-12.963v8.212h10.817c0.438,0,0.832,0.392,0.832,0.829v3.582c0,0.437-0.394,0.829-0.832,0.829
			h-10.817v11.051c0,0.437-0.394,0.831-0.832,0.831h-4.029c-0.482,0-0.832-0.394-0.832-0.831V158.75z"/>
		<path fill="#005677" d="M496.518,158.75c0-0.437,0.394-0.829,0.832-0.829h4.073c0.438,0,0.832,0.392,0.832,0.829v28.917
			c0,0.437-0.394,0.831-0.832,0.831h-4.073c-0.438,0-0.832-0.394-0.832-0.831V158.75z"/>
		<path fill="#005677" d="M523.099,163.163h-6.7c-0.482,0-0.832-0.394-0.832-0.831v-3.582c0-0.437,0.351-0.829,0.832-0.829h19.138
			c0.482,0,0.832,0.392,0.832,0.829v3.582c0,0.437-0.35,0.831-0.832,0.831h-6.7v24.504c0,0.437-0.394,0.831-0.832,0.831h-4.073
			c-0.438,0-0.832-0.394-0.832-0.831V163.163z"/>
	</g>
</g>
</svg>
