<?xml version="1.0" encoding="iso-8859-1"?>
<!-- Generator: Adobe Illustrator 25.2.1, SVG Export Plug-In . SVG Version: 6.00 Build 0)  -->
<svg version="1.1" id="Layer_1" xmlns="http://www.w3.org/2000/svg" xmlns:xlink="http://www.w3.org/1999/xlink" x="0px" y="0px"
	 width="118.894px" height="142.069px" viewBox="0 0 118.894 142.069" enable-background="new 0 0 118.894 142.069"
	 xml:space="preserve">
<g>
	<path fill="#69C480" d="M45.474,76.977c-6.958,0-13.439,0-20.193,0c0-8.023,0-15.564,0-23.573c6.564,0,13.03,0,19.859,0
		c0.128-1.567,0.291-2.703,0.301-3.841c0.05-5.739-0.149-11.489,0.125-17.217c0.722-15.095,9.837-25.439,24.828-27.174
		c7.578-0.877,15.34-0.153,23.219-0.153c0,7.738,0,14.49,0,21.79c-3.869,0-7.556-0.013-11.243,0.003
		c-9.954,0.043-12.653,2.711-12.684,12.546c-0.015,4.499-0.002,8.998-0.002,13.977c7.877,0,15.284,0,23.214,0
		c-0.973,7.636-1.784,14.746-2.914,21.805c-0.127,0.79-2.055,1.799-3.178,1.837c-5.563,0.189-11.135,0.086-17.1,0.086
		c0,20.272,0,40.109,0,60.267c-8.179,0-15.955,0-24.231,0C45.474,117.318,45.474,97.387,45.474,76.977z"/>
</g>
</svg>
