<?xml version="1.0" encoding="iso-8859-1"?>
<!-- Generator: Adobe Illustrator 25.2.1, SVG Export Plug-In . SVG Version: 6.00 Build 0)  -->
<svg version="1.1" id="Layer_1" xmlns="http://www.w3.org/2000/svg" xmlns:xlink="http://www.w3.org/1999/xlink" x="0px" y="0px"
	 width="16px" height="16px" viewBox="0 0 16 16" enable-background="new 0 0 16 16" xml:space="preserve">
<g>
	<defs>
		<circle id="SVGID_1_" cx="8" cy="8" r="7.712"/>
	</defs>
	<clipPath id="SVGID_2_">
		<use xlink:href="#SVGID_1_"  overflow="visible"/>
	</clipPath>
	<g clip-path="url(#SVGID_2_)">
		<g>
			<rect x="0.288" y="0.288" fill="#64BE6B" width="15.425" height="15.425"/>
		</g>
		<g>
			<path fill="#F4F5F5" d="M12.411,3.72c-0.321-1.095-0.938-1.736-2.349-1.784C9.73,1.98,9.397,2.09,9.106,2.244
				C8.468,2.583,8.071,3.12,7.998,3.86C7.975,4.096,7.903,4.236,7.64,4.335C7.292,4.466,6.966,4.687,6.67,4.919
				C6.153,5.326,6.252,5.867,6.881,6.053c0.339,0.1,0.709,0.142,1.063,0.133c0.345-0.01,0.627,0.016,0.806,0.351
				c0.034,0.065,0.11,0.111,0.173,0.156c0.746,0.543,1.547,0.576,2.348,0.175c0.837-0.419,1.397-1.089,1.413-2.062
				C12.691,4.446,12.517,4.08,12.411,3.72z M8.518,5.823C8.027,5.854,7.605,5.83,7.113,5.788C6.944,5.77,6.668,5.67,6.654,5.557
				C6.614,5.347,6.791,5.23,6.914,5.141c0.273-0.198,0.577-0.355,0.877-0.514c0.138-0.073,0.249-0.06,0.364,0.104
				C8.408,5.092,8.827,5.18,9.228,5.234c0.331,0.044,0.673,0.009,1.01,0.011c0.084,0,0.261-0.027,0.345-0.022
				C9.962,5.572,9.203,5.78,8.518,5.823z"/>
			<path fill="#F4F5F5" d="M11.776,11.04c-0.571-0.821-1.133-1.647-1.696-2.474L9.477,7.68c-0.135-0.197-0.286-0.231-0.51-0.11
				C8.248,7.958,6.904,7.886,6.338,8.262C5.711,8.679,5.811,9.254,5.811,9.254C5.595,9.37,5.698,9.295,5.487,9.418L4.2,7.498
				l0.242-0.109l-0.39-0.693L2.96,7.271l2.465,3.75l2.86-1.723l-0.62,3.154L7.414,14.01c0.278,0.034,0.56,0.054,0.846,0.054
				c0.507,0,1-0.057,1.475-0.161c0.065-0.114,0.144-0.225,0.245-0.329c0.241-0.248,0.463-0.525,0.649-0.762
				c0.406-0.518,0.774-1.004,1.126-1.483C11.844,11.209,11.849,11.144,11.776,11.04z M8.815,12.835l0.694-2.807l0.944,1.275
				L8.815,12.835z"/>
		</g>
	</g>
</g>
</svg>
