<?xml version="1.0" encoding="iso-8859-1"?>
<!-- Generator: Adobe Illustrator 25.2.1, SVG Export Plug-In . SVG Version: 6.00 Build 0)  -->
<svg version="1.1" id="Layer_1" xmlns="http://www.w3.org/2000/svg" xmlns:xlink="http://www.w3.org/1999/xlink" x="0px" y="0px"
	 width="116.882px" height="50.183px" viewBox="0 0 116.882 50.183" enable-background="new 0 0 116.882 50.183"
	 xml:space="preserve">
<g>
	<g id="_x38_lA4og_23_">
		<g>
			<g>
				<path fill="#F4F5F5" d="M102.591,29.226c-1.698,0-3.186,0-4.674,0c-17.93,0.002-35.861,0.005-53.791,0.007
					c-13.261,0.001-26.522,0.002-39.783-0.001c-2.498,0-4.337-1.762-4.343-4.142c-0.006-2.413,1.844-4.18,4.383-4.18
					c32.429-0.002,64.858-0.003,97.288-0.004c0.25,0,0.5,0,0.75,0c0.046-0.063,0.092-0.127,0.138-0.19
					c-0.591-0.546-1.2-1.074-1.769-1.642c-3.949-3.942-7.89-7.891-11.831-11.841c-1.781-1.785-1.816-4.341-0.091-6.059
					c1.624-1.618,4.243-1.56,5.967,0.163c6.588,6.584,13.168,13.178,19.752,19.766c0.297,0.297,0.603,0.585,0.916,0.865
					c1.777,1.598,1.847,4.388,0.156,6.066c-2.767,2.745-5.535,5.489-8.293,8.243c-4.229,4.222-8.447,8.456-12.677,12.678
					c-1.634,1.631-4.271,1.636-5.865,0.03c-1.639-1.651-1.651-4.272-0.009-5.92c4.383-4.399,8.773-8.791,13.159-13.186
					C102.134,29.716,102.288,29.546,102.591,29.226z"/>
			</g>
		</g>
	</g>
</g>
</svg>
