<?xml version="1.0" encoding="iso-8859-1"?>
<!-- Generator: Adobe Illustrator 25.2.1, SVG Export Plug-In . SVG Version: 6.00 Build 0)  -->
<svg version="1.1" id="Layer_1" xmlns="http://www.w3.org/2000/svg" xmlns:xlink="http://www.w3.org/1999/xlink" x="0px" y="0px"
	 width="119.849px" height="119.849px" viewBox="0 0 119.849 119.849" enable-background="new 0 0 119.849 119.849"
	 xml:space="preserve">
<g>
	<path fill="#FF9E18" d="M112.875,63.082l-3.825-3.158l3.825-3.158c1.193-0.985,1.785-2.488,1.583-4.022
		c-0.202-1.534-1.163-2.833-2.569-3.475l-4.512-2.06l2.878-4.04c0.897-1.26,1.079-2.865,0.487-4.295
		c-0.592-1.429-1.856-2.435-3.381-2.691l-4.892-0.822l1.733-4.647c0.541-1.449,0.302-3.047-0.64-4.274
		c-0.941-1.227-2.425-1.871-3.963-1.725l-4.938,0.472l0.472-4.938c0.147-1.54-0.498-3.021-1.725-3.963
		c-1.227-0.942-2.825-1.18-4.274-0.64l-4.648,1.734l-0.822-4.891c-0.256-1.526-1.263-2.79-2.692-3.381
		c-1.429-0.592-3.035-0.41-4.294,0.487l-4.04,2.878l-2.06-4.512c-0.642-1.407-1.941-2.368-3.475-2.57
		c-1.532-0.201-3.037,0.39-4.022,1.583l-3.158,3.825l-3.158-3.825c-0.984-1.193-2.487-1.785-4.021-1.583
		c-1.534,0.202-2.833,1.162-3.476,2.569l-2.06,4.512l-4.04-2.878c-1.259-0.897-2.865-1.08-4.294-0.488
		c-1.429,0.592-2.435,1.856-2.692,3.381l-0.822,4.891l-4.648-1.734c-1.448-0.541-3.047-0.301-4.274,0.64
		c-1.227,0.942-1.872,2.423-1.725,3.963l0.472,4.938l-4.937-0.472c-1.541-0.146-3.021,0.498-3.963,1.725
		c-0.942,1.227-1.181,2.825-0.64,4.274l1.734,4.647l-4.892,0.822c-1.525,0.256-2.79,1.263-3.381,2.692
		c-0.592,1.429-0.409,3.035,0.488,4.294l2.878,4.04l-4.512,2.06c-1.407,0.642-2.368,1.941-2.57,3.475
		c-0.202,1.534,0.39,3.037,1.583,4.022l3.825,3.158l-3.825,3.158c-1.193,0.985-1.785,2.488-1.583,4.022
		c0.202,1.534,1.163,2.833,2.569,3.475l4.512,2.06l-2.877,4.04c-0.898,1.259-1.08,2.865-0.488,4.294
		c0.592,1.429,1.856,2.435,3.381,2.692l4.892,0.822l-1.734,4.647c-0.541,1.449-0.301,3.047,0.64,4.274
		c0.942,1.227,2.425,1.872,3.963,1.725l4.937-0.472L24.715,99.6c-0.147,1.539,0.498,3.021,1.725,3.962
		c1.227,0.941,2.825,1.181,4.274,0.64l4.648-1.734l0.822,4.891c0.256,1.526,1.263,2.79,2.692,3.381
		c1.43,0.592,3.035,0.409,4.294-0.487l4.04-2.878l2.06,4.512c0.643,1.407,1.942,2.368,3.476,2.569
		c0.198,0.026,0.395,0.039,0.592,0.039c1.321,0,2.573-0.583,3.429-1.621l3.158-3.825l3.158,3.825
		c0.985,1.193,2.491,1.784,4.022,1.583c1.534-0.202,2.833-1.163,3.475-2.569l2.06-4.512l4.04,2.878
		c1.26,0.897,2.865,1.079,4.294,0.487c1.429-0.592,2.435-1.856,2.692-3.381l0.822-4.892l4.648,1.734
		c1.448,0.54,3.047,0.301,4.274-0.64c1.227-0.942,1.872-2.423,1.725-3.963l-0.472-4.938l4.938,0.472
		c1.542,0.147,3.022-0.498,3.963-1.725c0.941-1.227,1.181-2.825,0.64-4.274l-1.733-4.648l4.892-0.822
		c1.525-0.256,2.789-1.263,3.381-2.691c0.592-1.429,0.41-3.035-0.487-4.295l-2.878-4.04l4.512-2.06
		c1.407-0.642,2.368-1.941,2.57-3.475C114.66,65.57,114.068,64.067,112.875,63.082z M105.162,68.485
		c-1.215,0.555-2.11,1.612-2.456,2.903c-0.346,1.29-0.1,2.654,0.675,3.742l2.824,3.965l-4.801,0.807
		c-1.317,0.221-2.455,1.012-3.123,2.168c-0.668,1.157-0.783,2.538-0.316,3.789l1.701,4.561l-4.846-0.463
		c-1.326-0.125-2.634,0.342-3.578,1.286c-0.944,0.945-1.413,2.248-1.286,3.578l0.463,4.846l-4.561-1.701
		c-1.252-0.467-2.633-0.352-3.789,0.316c-1.157,0.668-1.947,1.806-2.169,3.123l-0.807,4.801l-3.965-2.824
		c-1.087-0.775-2.451-1.021-3.741-0.675c-1.29,0.346-2.348,1.241-2.903,2.456l-2.022,4.428l-3.099-3.754
		c-0.851-1.03-2.104-1.62-3.44-1.62c-1.335,0-2.589,0.591-3.439,1.621l-3.099,3.754l-2.022-4.428
		c-0.555-1.215-1.613-2.11-2.903-2.456c-0.383-0.102-0.772-0.153-1.159-0.153c-0.916,0-1.818,0.283-2.583,0.828l-3.965,2.824
		l-0.807-4.801c-0.222-1.317-1.012-2.456-2.169-3.123c-1.157-0.668-2.538-0.783-3.788-0.316l-4.561,1.702l0.463-4.846
		c0.127-1.33-0.342-2.634-1.286-3.578c-0.944-0.945-2.25-1.413-3.578-1.286l-4.846,0.463l1.702-4.561
		c0.467-1.251,0.352-2.632-0.316-3.789c-0.668-1.157-1.806-1.947-3.123-2.168l-4.801-0.807l2.824-3.965
		c0.775-1.088,1.021-2.452,0.675-3.742c-0.346-1.29-1.241-2.348-2.455-2.902l-4.428-2.022l3.754-3.099
		c1.03-0.851,1.62-2.104,1.62-3.439s-0.591-2.589-1.621-3.439l-3.754-3.099l4.428-2.022c1.215-0.555,2.11-1.612,2.456-2.902
		c0.346-1.29,0.1-2.654-0.675-3.742l-2.824-3.965l4.801-0.807c1.317-0.221,2.456-1.012,3.123-2.168
		c0.668-1.157,0.783-2.538,0.316-3.789l-1.702-4.561l4.846,0.463c1.331,0.126,2.634-0.342,3.578-1.286
		c0.944-0.944,1.413-2.248,1.286-3.578l-0.463-4.846l4.561,1.701c1.251,0.467,2.632,0.352,3.789-0.316
		c1.157-0.668,1.947-1.806,2.169-3.124l0.807-4.801l3.965,2.824c1.088,0.775,2.451,1.021,3.742,0.675
		c1.29-0.346,2.348-1.241,2.903-2.456l2.022-4.428l3.099,3.754c0.85,1.03,2.104,1.621,3.439,1.621c0,0,0,0,0.001,0
		c1.335,0,2.589-0.591,3.439-1.62l3.099-3.754l2.022,4.428c0.555,1.215,1.613,2.11,2.903,2.456c1.29,0.346,2.654,0.1,3.741-0.675
		l3.965-2.824l0.807,4.801c0.222,1.317,1.012,2.456,2.169,3.123c1.157,0.668,2.539,0.783,3.789,0.316l4.561-1.702l-0.463,4.846
		c-0.127,1.329,0.342,2.633,1.286,3.578c0.945,0.945,2.253,1.413,3.578,1.286l4.846-0.463l-1.701,4.561
		c-0.467,1.251-0.352,2.632,0.316,3.789c0.668,1.157,1.806,1.947,3.123,2.168l4.801,0.807l-2.824,3.965
		c-0.775,1.088-1.021,2.452-0.675,3.742c0.346,1.29,1.241,2.348,2.456,2.903l4.428,2.022l-3.754,3.099
		c-1.03,0.85-1.621,2.104-1.621,3.439s0.591,2.589,1.621,3.439l3.754,3.099L105.162,68.485z"/>
	<path fill="#FF9E18" d="M59.924,23.588c-20.068,0-36.336,16.268-36.336,36.336s16.268,36.336,36.336,36.336
		s36.336-16.268,36.336-36.336S79.992,23.588,59.924,23.588z M81.498,55.434l-7.995,7.794c-0.477,0.465-0.742,1.093-0.76,1.746
		c0.005,0.095,0.015,0.191,0.031,0.286l1.888,11.004c0.031,0.18,0.036,0.353,0.031,0.524c0.098,1.91-1.943,3.284-3.706,2.357
		l-9.883-5.196c-0.738-0.388-1.62-0.388-2.357,0l-9.883,5.196c-1.763,0.927-3.804-0.447-3.706-2.357
		c-0.005-0.171,0-0.344,0.031-0.524l1.887-11.004c0.016-0.095,0.026-0.19,0.031-0.286c-0.018-0.653-0.283-1.282-0.76-1.746
		l-7.995-7.794c-0.571-0.556-0.804-1.269-0.761-1.956c-0.026-1.199,0.796-2.376,2.165-2.575l11.049-1.606
		c0.825-0.12,1.538-0.638,1.907-1.386L57.654,37.9c0.929-1.883,3.614-1.883,4.543,0l4.941,10.012
		c0.369,0.748,1.082,1.266,1.907,1.386l11.049,1.606c1.369,0.199,2.191,1.376,2.165,2.575
		C82.302,54.166,82.069,54.878,81.498,55.434z"/>
</g>
</svg>
