<?xml version="1.0" encoding="iso-8859-1"?>
<!-- Generator: Adobe Illustrator 25.2.1, SVG Export Plug-In . SVG Version: 6.00 Build 0)  -->
<svg version="1.1" id="Layer_1" xmlns="http://www.w3.org/2000/svg" xmlns:xlink="http://www.w3.org/1999/xlink" x="0px" y="0px"
	 width="114.919px" height="115.01px" viewBox="0 0 114.919 115.01" enable-background="new 0 0 114.919 115.01"
	 xml:space="preserve">
<g>
	<g>
		<path fill="#FF9E18" d="M81.469,70.783c10,9.965,19.866,19.744,29.649,29.606c1.379,1.39,2.86,3.03,3.402,4.824
			c1.058,3.502,0.031,6.699-3.324,8.623c-3.481,1.996-6.771,1.395-9.586-1.408c-9.019-8.981-18.03-17.971-26.972-27.029
			c-1.278-1.294-2.159-2.981-2.993-4.161c-25.429,13.122-49.085,9.24-62.705-9.516C-4.658,52.997-2.555,28.117,13.963,12.32
			C29.73-2.76,54.78-4.179,71.914,9.071C89.463,22.643,96.003,47.779,81.469,70.783z M10.159,44.799
			c-0.012,19.06,15.303,34.596,34.153,34.647c19.486,0.052,35.046-15.125,35.086-34.222c0.042-19.824-15.009-35.038-34.655-35.03
			C25.32,10.202,10.171,25.36,10.159,44.799z"/>
	</g>
</g>
</svg>
